<?xml version="1.0" encoding="UTF-8" standalone="no"?>
<svg


   
   xmlns="http://www.w3.org/2000/svg"
   viewBox="0 0 4000 4000"
   height="4000"
   width="4000"
   xmlSpace="preserve"
   id="svg2"
   version="1.1"><metadata
     id="metadata8"><rdfRDF><ccWork
         ><dcFormat>image/svg+xml</dcFormat><dcType
         /></ccWork></rdfRDF></metadata><defs
     id="defs6" /><g
     transform="matrix(1.3333333,0,0,-1.3333333,0,4000)"
     id="g10"><g
       transform="scale(0.1)"
       id="g12"><g
         transform="scale(1.84049)"
         id="g14"><path
           id="path16"
           style="fill:#ffffff;fill-opacity:1;fill-rule:nonzero;stroke:none"
           d="M 16300,0 H 0 V 16300 H 16300 V 0" /></g><g
         transform="scale(1.29942)"
         id="g18"><path
           id="path20"
           style="fill:#000000;fill-opacity:1;fill-rule:nonzero;stroke:none"
           d="m 13278.1,9676.34 v 158.53 h 792.7 V 8577.62 c -49.1,-38.02 -93.5,-65.03 -158.5,-76.12 v 1174.84 z m -689.7,-1057.48 c -88.7,-74.57 -147.4,-122.13 -282.2,-122.13 -133.1,0 -191.8,47.56 -282.2,122.13 -104.6,85.58 -234.6,195.02 -483.5,195.02 -249,0 -379,-109.44 -483.6,-195.02 -88.8,-74.57 -147.5,-122.13 -282.2,-122.13 -134.8,0 -193.4,47.56 -282.2,122.13 -60.3,49.1 -130,107.82 -226.7,145.84 V 9834.87 H 12961 V 8804.33 c -179.1,-25.39 -285.3,-114.13 -372.6,-185.47 z M 9155.95,9676.34 v 158.53 h 792.74 V 8810.64 c -60.26,-3.15 -112.59,-14.24 -158.53,-31.7 v 897.4 z m -1109.8,792.76 h 475.59 4122.16 634.2 634.2 317.1 792.7 v -158.6 H 8046.15 Z m 1811.96,1494.8 v -611.5 h -611.58 v 611.5 z M 11217,11261.7 c 0,-87.1 -71.3,-158.5 -158.5,-158.5 h -475.7 c -87.2,0 -158.5,71.4 -158.5,158.5 0,87.2 71.3,158.7 158.5,158.7 h 475.7 c 87.2,0 158.5,-71.5 158.5,-158.7 z m -158.5,634.2 h -475.7 c -87.2,0 -158.5,71.4 -158.5,158.6 0,87.2 71.3,158.5 158.5,158.5 h 475.7 c 87.2,0 158.5,-71.3 158.5,-158.5 0,-87.2 -71.3,-158.6 -158.5,-158.6 z m 1109.8,-634.2 c 0,-87.1 -71.3,-158.5 -158.5,-158.5 h -475.7 c -87.2,0 -158.5,71.4 -158.5,158.5 0,87.2 71.3,158.7 158.5,158.7 h 475.7 c 87.2,0 158.5,-71.5 158.5,-158.7 z m 0,792.8 c 0,-87.2 -71.3,-158.6 -158.5,-158.6 h -475.7 c -87.2,0 -158.5,71.4 -158.5,158.6 0,87.2 71.3,158.5 158.5,158.5 h 475.7 c 87.2,0 158.5,-71.3 158.5,-158.5 z m 1902.5,0 v -1268.4 h -158.5 v 1109.8 h -475.7 v 158.6 z m 1475.2,400.9 -1158.1,-1389.7 v 1057.5 l 974.6,584.3 c 32,-103.2 96.4,-192.1 183.5,-252.1 z m 595.5,-3641.52 c -249,0 -380.6,-109.44 -485.2,-195.02 -88.8,-74.57 -147.4,-122.13 -282.3,-122.13 -134.7,0 -195,47.56 -283.7,122.13 -104.7,85.58 -236.3,195.02 -483.6,195.02 -85.6,0 -156.9,-12.7 -218.8,-34.94 v 1055.93 h 475.7 c 261.6,0 475.6,214.03 475.6,475.63 v 317.1 c 0,87.2 -71.4,158.5 -158.5,158.5 H 14568 l 1246.9,1496.3 V 9359.27 c 0,-87.65 70.8,-158.61 158.5,-158.61 87.6,0 158.5,70.96 158.5,158.61 v 3136.03 c 96.6,87.1 158.6,211.9 158.6,351.9 0,262.3 -213.4,475.6 -475.6,475.6 -164.6,0 -309.8,-84 -395.2,-211.3 l -1234.2,-740 h -907.4 c -87.6,0 -158.5,-70.8 -158.5,-158.5 v -1426.9 h -317.1 v 1585.4 c 0,261.7 -214.1,475.7 -475.7,475.7 h -651.6 -2818.92 -17.39 c -261.66,0 -475.68,-214 -475.68,-475.7 v -1585.4 h -475.6 c -87.19,0 -158.53,-71.3 -158.53,-158.5 v -317.1 c 0,-261.6 214.02,-475.63 475.6,-475.63 h 634.21 V 8710.83 c -87.2,55.49 -199.79,103.05 -363.09,103.05 -247.34,0 -378.94,-109.44 -483.6,-195.02 -88.73,-74.57 -147.38,-122.13 -282.2,-122.13 -133.15,0 -191.81,47.56 -280.6,122.13 -104.63,85.58 -236.23,195.02 -483.55,195.02 -88.79,0 -158.55,-71.42 -158.55,-158.61 0,-88.74 69.76,-158.54 158.55,-158.54 133.18,0 191.84,-49.1 280.62,-122.05 104.63,-87.19 236.23,-195.01 483.53,-195.01 248.95,0 378.93,107.82 485.21,195.01 88.74,72.95 147.38,122.05 280.59,122.05 134.75,0 193.4,-49.1 282.2,-122.05 104.67,-87.19 236.26,-195.01 483.53,-195.01 95.2,0 172.84,15.85 237.87,39.63 106.2,39.63 182.32,101.51 247.35,155.38 22.16,19.01 42.78,36.48 63.41,50.71 60.26,44.41 118.9,71.34 217.14,71.34 134.8,0 193.5,-49.1 282.2,-122.05 106.2,-87.19 236.3,-195.01 485.2,-195.01 248.9,0 378.9,107.82 483.6,195.01 88.7,72.95 147.4,122.05 282.2,122.05 134.7,0 193.4,-49.1 282.2,-122.05 104.6,-87.19 236.2,-195.01 483.5,-195.01 249,0 380.6,107.82 485.2,195.01 88.8,72.95 147.4,122.05 282.2,122.05 17.4,0 31.7,0 46,-1.54 103,-11.08 156.9,-57.1 234.6,-120.51 106.2,-87.19 236.3,-195.01 485.2,-195.01 25.4,0 49.1,1.62 72.9,4.77 203,17.39 317.1,112.51 410.7,190.24 90.3,72.95 149,122.05 283.7,122.05 134.8,0 193.5,-49.1 282.2,-122.05 104.7,-87.19 236.3,-195.01 485.1,-195.01 249,0 379,107.82 483.7,195.01 88.8,72.95 148.9,122.05 283.8,122.05 87.2,0 158.5,69.8 158.5,158.54 0,87.19 -71.3,158.61 -158.5,158.61" /></g><g
         transform="scale(1.17701)"
         id="g22"><path
           id="path24"
           style="fill:#000000;fill-opacity:1;fill-rule:nonzero;stroke:none"
           d="m 16125,8854.58 c -274.5,0 -418.8,-119.28 -534.9,-215.2 -98.1,-81.23 -163.1,-134.83 -311.8,-134.83 -148.3,0 -213.1,53.6 -311.2,134.83 -115.9,95.92 -260,215.2 -534.6,215.2 -274.5,0 -418.6,-119.28 -534.4,-215.2 -98.2,-81.23 -162.9,-134.83 -311.3,-134.83 -148.6,0 -213.3,53.6 -311.4,134.83 -115.9,95.92 -260,215.2 -534.5,215.2 -274.5,0 -418.8,-119.28 -534.7,-215.2 -98.1,-81.23 -162.9,-134.83 -311.4,-134.83 -148.4,0 -213.2,53.6 -311.3,134.83 -115.9,95.92 -260.2,215.2 -534.7,215.2 -274.3,0 -418.4,-119.28 -534.3,-215.2 -98.2,-81.23 -162.9,-134.83 -311.2,-134.83 -148.3,0 -213.04,53.6 -311,134.66 -115.71,96.09 -259.81,215.37 -534.32,215.37 -96.77,0 -175.02,-78.33 -175.02,-175.01 0,-96.78 78.25,-175.02 175.02,-175.02 148.34,0 213,-53.7 311.13,-134.92 115.72,-95.84 259.81,-215.21 534.19,-215.21 274.5,0 418.6,119.37 534.5,215.21 98.1,81.22 162.8,134.92 311,134.92 148.6,0 213.3,-53.7 311.5,-134.92 115.9,-95.84 259.9,-215.21 534.5,-215.21 274.5,0 418.7,119.37 534.6,215.21 98.1,81.22 163,134.92 311.5,134.92 148.3,0 213.2,-53.7 311.3,-134.92 115.9,-95.84 260.1,-215.21 534.6,-215.21 274.6,0 418.6,119.37 534.5,215.21 98.2,81.22 162.9,134.92 311.2,134.92 148.5,0 213.2,-53.7 311.3,-134.92 115.9,-95.84 260,-215.21 534.5,-215.21 274.7,0 419,119.37 535,215.21 98.2,81.22 163.2,134.92 311.7,134.92 96.8,0 175,78.24 175,175.02 0,96.68 -78.2,175.01 -175,175.01" /></g><g
         transform="scale(1.19755)"
         id="g26"><path
           id="path28"
           style="fill:#000000;fill-opacity:1;fill-rule:nonzero;stroke:none"
           d="M 14235.6,14112.1 H 16128 c 95,0 172,77 172,172 0,95.1 -77,172 -172,172 h -1892.4 c -95.1,0 -172,-76.9 -172,-172 0,-95 76.9,-172 172,-172" /></g><g
         transform="scale(1.25167)"
         id="g30"><path
           id="path32"
           style="fill:#000000;fill-opacity:1;fill-rule:nonzero;stroke:none"
           d="m 10657.4,13831.1 h -493.8 c -90.5,0 -164.54,74.1 -164.54,164.6 0,90.5 74.04,164.6 164.54,164.6 h 493.8 c 90.5,0 164.6,-74.1 164.6,-164.6 0,-90.5 -74.1,-164.6 -164.6,-164.6 z m 1114.3,-329.2 h 330.8 l -130,1170.3 c -8.2,83.9 -79,146.4 -163,146.4 h -493.7 v 823 h 164.6 c 91,0 164.5,73.7 164.5,164.6 0,91 -73.5,164.6 -164.5,164.6 H 10822 c -91,0 -164.6,-73.6 -164.6,-164.6 0,-90.9 73.6,-164.6 164.6,-164.6 h 164.5 v -823 h -658.3 v 1152.2 h 164.6 c 91,0 164.6,73.6 164.6,164.6 0,91 -73.6,164.6 -164.6,164.6 h -658.4 c -90.92,0 -164.58,-73.6 -164.58,-164.6 0,-91 73.66,-164.6 164.58,-164.6 h 164.66 v -1152.2 h -493.82 c -83.97,0 -154.67,-62.5 -162.9,-146.4 l -130.07,-1170.3 h 330.84 2228.59" /></g></g></g></svg>